<?xml version="1.0" encoding="UTF-8"?>
<svg width="800" height="600" viewBox="0 0 800 600" fill="none" xmlns="http://www.w3.org/2000/svg">
  <!-- Background Circle -->
  <circle cx="400" cy="300" r="250" fill="#F3F4F6"/>
  
  <!-- Decorative Elements -->
  <circle cx="300" cy="200" r="50" fill="#818CF8" opacity="0.2"/>
  <circle cx="500" cy="400" r="40" fill="#34D399" opacity="0.2"/>
  
  <!-- Main Illustration -->
  <g transform="translate(250, 150)">
    <!-- Brain Icon -->
    <path d="M150 100C150 155.228 104.228 200 50 200C-4.228 200 -50 155.228 -50 100C-50 44.772 -4.228 0 50 0C104.228 0 150 44.772 150 100Z" fill="#818CF8"/>
    <path d="M100 100C100 127.614 77.614 150 50 150C22.386 150 0 127.614 0 100C0 72.386 22.386 50 50 50C77.614 50 100 72.386 100 100Z" fill="white"/>
    
    <!-- Connection Lines -->
    <path d="M-50 100L-100 100" stroke="#818CF8" stroke-width="4"/>
    <path d="M150 100L200 100" stroke="#818CF8" stroke-width="4"/>
    <path d="M50 0L50 -50" stroke="#818CF8" stroke-width="4"/>
    <path d="M50 200L50 250" stroke="#818CF8" stroke-width="4"/>
    
    <!-- Decorative Dots -->
    <circle cx="-100" cy="100" r="8" fill="#818CF8"/>
    <circle cx="200" cy="100" r="8" fill="#818CF8"/>
    <circle cx="50" cy="-50" r="8" fill="#818CF8"/>
    <circle cx="50" cy="250" r="8" fill="#818CF8"/>
  </g>
  
  <!-- Floating Elements -->
  <g transform="translate(400, 300)">
    <circle cx="-100" cy="-100" r="20" fill="#34D399" opacity="0.3"/>
    <circle cx="100" cy="-80" r="15" fill="#818CF8" opacity="0.3"/>
    <circle cx="-80" cy="100" r="25" fill="#F472B6" opacity="0.3"/>
    <circle cx="80" cy="120" r="18" fill="#FBBF24" opacity="0.3"/>
  </g>
</svg> 