<?xml version="1.0" encoding="UTF-8"?>
<svg width="200" height="200" viewBox="0 0 200 200" xmlns="http://www.w3.org/2000/svg">
  <!-- مغز -->
  <path d="M100 20 C60 20 30 50 30 90 C30 130 60 160 100 160 C140 160 170 130 170 90 C170 50 140 20 100 20 Z" fill="#FF69B4"/>
  
  <!-- خطوط مغز -->
  <path d="M70 50 C70 70 90 80 100 80 C110 80 130 70 130 50" stroke="white" stroke-width="3" fill="none"/>
  <path d="M60 90 C60 110 80 120 100 120 C120 120 140 110 140 90" stroke="white" stroke-width="3" fill="none"/>
  <path d="M70 130 C70 150 90 160 100 160 C110 160 130 150 130 130" stroke="white" stroke-width="3" fill="none"/>
  
  <!-- متن Testology -->
  <text x="100" y="190" font-family="Arial" font-size="24" fill="#333" text-anchor="middle">Testology</text>
</svg> 